<?xml version="1.0" encoding="utf-8"?>
<!-- Generator: Adobe Illustrator 28.0.0, SVG Export Plug-In . SVG Version: 6.00 Build 0)  -->
<svg version="1.1" id="Ebene_2" xmlns="http://www.w3.org/2000/svg" xmlns:xlink="http://www.w3.org/1999/xlink" x="0px" y="0px"
	 viewBox="0 0 283.5 283.5" style="enable-background:new 0 0 283.5 283.5;" xml:space="preserve">
<style type="text/css">
	.st0{fill:#FFFFFF;}
	.st1{fill:url(#SVGID_1_);}
	.st2{fill:url(#SVGID_00000027564335357994841570000008405589040210273968_);}
	.st3{fill:url(#SVGID_00000055677704305177755740000012027969035476423566_);}
	.st4{fill:url(#SVGID_00000096040933810179558640000003030189604332470964_);}
	.st5{fill:none;stroke:#000000;stroke-miterlimit:10;}
	.st6{fill:url(#SVGID_00000084513932548547427820000013079570179812132011_);}
	.st7{fill:url(#SVGID_00000168814745801034469120000017877362411522747801_);}
	.st8{fill:url(#SVGID_00000181053173637140375390000004744730167350472589_);}
	.st9{fill:url(#SVGID_00000121255173319792024060000010932992698682711231_);}
	.st10{fill:url(#SVGID_00000132782975491140411300000005267797957903099046_);}
</style>
<g>
	<path class="st0" d="M214.8,283.5H68.7c-34.4,0-62.3-27.9-62.3-62.3V62.3C6.4,27.9,34.3,0,68.7,0h146.1c34.4,0,62.3,27.9,62.3,62.3
		v158.8C277.1,255.6,249.2,283.5,214.8,283.5z"/>
	<g>
		<linearGradient id="SVGID_1_" gradientUnits="userSpaceOnUse" x1="19.6426" y1="141.7323" x2="263.822" y2="141.7323">
			<stop  offset="0" style="stop-color:#00ABA0"/>
			<stop  offset="1" style="stop-color:#31287C"/>
		</linearGradient>
		<path class="st1" d="M208.9,269.4H74.6c-30.4,0-55-24.6-55-55V69.1c0-30.4,24.6-55,55-55h134.2c30.4,0,55,24.6,55,55v145.3
			C263.8,244.7,239.2,269.4,208.9,269.4z"/>
		
			<linearGradient id="SVGID_00000097472471670315032900000013319189726025067433_" gradientUnits="userSpaceOnUse" x1="42.5554" y1="111.3702" x2="237.8393" y2="111.3702">
			<stop  offset="0" style="stop-color:#FFFFFF"/>
			<stop  offset="1" style="stop-color:#B4E1FA"/>
		</linearGradient>
		<path style="fill:url(#SVGID_00000097472471670315032900000013319189726025067433_);" d="M192.3,173.6L192.3,173.6l26.5,14.7
			l0.7,0c9.4-13.1,15.8-28.6,17.7-45.5l0.1,0h-39.9c-2.2,0-4-1.8-4-4v0c0-2.2,1.8-4,4-4h40.5l-0.1,0c0-0.9,0-1.9,0-2.8
			c0-53.9-43.7-97.6-97.6-97.6S42.6,78.1,42.6,132c0,1.2,0,2.3,0.1,3.5l0,0h45.1c2,0,3.6,1.6,3.6,3.6s-1.6,3.6-3.6,3.6
			c-9.3,0-38.7,0.5-44.1,0l-0.6-0.1c0,0.4,0.1,0.9,0.1,1.5c1.4,14,7.8,30,18.6,44.4l0,0c9.1-4.7,18.1-9.4,27.2-14"/>
		
			<linearGradient id="SVGID_00000129200196564772821460000001559860185205390976_" gradientUnits="userSpaceOnUse" x1="71.5547" y1="120.0517" x2="208.88" y2="120.0517">
			<stop  offset="0" style="stop-color:#009EDE"/>
			<stop  offset="1" style="stop-color:#56BAA0"/>
		</linearGradient>
		<path style="fill:url(#SVGID_00000129200196564772821460000001559860185205390976_);" d="M208.8,134.8h-11.5c-2.2,0-4,1.8-4,4v0
			c0,2.2,1.8,4,4,4h10.5v0.1c-2.2,11.6-7.7,22.2-15.5,30.8L89,174.3l-0.3-0.2c-8-8.7-13.7-19.4-16-31.3l0-0.2
			c6.2-0.1,11.9-0.1,15.1-0.1c2,0,3.6-1.6,3.6-3.6s-1.6-3.6-3.6-3.6H71.7l0-0.1c-0.1-1.4-0.1-2.8-0.1-4.3c0-36,30.7-65.2,68.7-65.2
			S208.9,95,208.9,131c0,1.2,0,2.4-0.1,3.6V134.8z"/>
		
			<linearGradient id="SVGID_00000044892566063690392760000009014194488933801088_" gradientUnits="userSpaceOnUse" x1="107.1409" y1="122.9767" x2="187.2061" y2="122.9767">
			<stop  offset="0" style="stop-color:#2581C4"/>
			<stop  offset="1" style="stop-color:#2C2A6C"/>
		</linearGradient>
		<path style="fill:url(#SVGID_00000044892566063690392760000009014194488933801088_);" d="M156.7,98.2c3.4,1.7,6.7,4.2,9.4,7.8
			c3.8,4.9,5,10,5.3,11.7c0.6,2.8,1.7,8.7-1.2,14.1c-1.7,3.2-4.1,4.8-8.4,7.5c-3.6,2.3-4.5,2.3-16.1,7.6c-0.8,0.3-7,3.2-12.5,6.1
			c-4.7,2.5-2.6,1.7-6.2,3.7c-2.4,1.3-3.2,1.5-3.3,2.2c-0.3,1.6,3.4,2.9,8.7,6.2c3.7,2.3,2.6,2,13,9.3c1.5,1,3.9,2.7,7.2,4.7
			c1.1,0.7,2,1.2,3.8,2.1c10.8,5.9,11.5,6.2,13.2,6.9c2,0.8,4.2,1.7,7.4,2.4c4.6,1.1,7.3,1,9,3.2c0.1,0.2,1.7,2.2,1.1,3.4
			c-1.9,3.9-24.5-3.8-33.9-6.9c-6.8-2.3-16.1-5.7-26.9-11.9c-7.8-4.4-11.5-7.6-14.2-12.2c-1.4-2.3-5.2-9-3-15.1
			c2.4-6.6,10.6-9.2,20.3-12.2c8.4-2.6,16.7-5.6,25.2-7.9c0.5-0.1,1.8-0.5,3.1-1.6c1.2-1.1,1.8-2.4,2-2.9c1.5-3.7-0.3-7.6-0.7-8.4
			c-1.3-2.7-3.1-4.2-5.4-5.9c-2.2-1.7-7.8-6-15.4-5.7c-2,0.1-3.5,0.4-4.2,0.6c-5.4,1.3-8.8,4.3-9.6,5c-0.9,0.8-6.1,5.6-7,13.4
			c-0.2,2-0.1,3.7,0,4.8c-0.6,0.7-1.4,1.5-2.2,2.3c-2.6,2.3-5.4,3.6-7.4,4.2c-0.1-0.5-0.1-1.1-0.2-2c-0.3-3.5-0.8-8.9,0.3-14.4
			c1.5-7.4,5.3-12.5,6.1-13.6c3-3.9,6.6-6.6,10.2-8.5l-0.2,0c-7-5.1-11.6-13.4-11.6-22.7c0-15.5,12.5-28,27.8-28
			c15.4,0,27.8,12.5,27.8,28c0,4.4-1.4,8.7-1.5,9.1C164,92.2,159,96.5,156.7,98.2z"/>
		<path class="st5" d="M42.6,135.4"/>
		
			<linearGradient id="SVGID_00000175288235350066903770000015744798500528040087_" gradientUnits="userSpaceOnUse" x1="129.1798" y1="89.1156" x2="151.5869" y2="62.4118">
			<stop  offset="0" style="stop-color:#FFFFFF"/>
			<stop  offset="0" style="stop-color:#FFFFFF"/>
			<stop  offset="1" style="stop-color:#42B4E8"/>
		</linearGradient>
		
			<ellipse style="fill:url(#SVGID_00000175288235350066903770000015744798500528040087_);" cx="140.4" cy="75.8" rx="17.3" ry="17.5"/>
		
			<linearGradient id="SVGID_00000063600620972473231710000009666810387622848701_" gradientUnits="userSpaceOnUse" x1="114.5187" y1="223.7297" x2="168.9538" y2="269.4061">
			<stop  offset="0" style="stop-color:#FFFFFF"/>
			<stop  offset="0" style="stop-color:#FFFFFF"/>
			<stop  offset="1" style="stop-color:#42B4E8"/>
		</linearGradient>
		<path style="fill:url(#SVGID_00000063600620972473231710000009666810387622848701_);" d="M181.2,252.3h-79c-2.5,0-4.4-2-4.4-4.4
			v-2.6c0-2.5,2-4.4,4.4-4.4h79c2.5,0,4.4,2,4.4,4.4v2.6C185.7,250.3,183.7,252.3,181.2,252.3z"/>
		
			<linearGradient id="SVGID_00000046311559087903043220000008489838032732866481_" gradientUnits="userSpaceOnUse" x1="76.5983" y1="224.8046" x2="211.7546" y2="224.8046">
			<stop  offset="0" style="stop-color:#FFFFFF"/>
			<stop  offset="0" style="stop-color:#FFFFFF"/>
			<stop  offset="1" style="stop-color:#42B4E8"/>
		</linearGradient>
		<path style="fill:url(#SVGID_00000046311559087903043220000008489838032732866481_);" d="M207.3,230.5H81c-2.5,0-4.4-2-4.4-4.4
			v-2.6c0-2.5,2-4.4,4.4-4.4h126.3c2.5,0,4.4,2,4.4,4.4v2.6C211.8,228.5,209.8,230.5,207.3,230.5z"/>
		<path class="st5" d="M116.2,204.7"/>
		<path class="st5" d="M118.5,128.1"/>
		
			<linearGradient id="SVGID_00000143578777667192837350000016099264028119243396_" gradientUnits="userSpaceOnUse" x1="70.903" y1="191.4618" x2="131.4805" y2="207.6935">
			<stop  offset="0" style="stop-color:#FFFFFF"/>
			<stop  offset="0" style="stop-color:#FFFFFF"/>
			<stop  offset="1" style="stop-color:#10B1E7"/>
		</linearGradient>
		<path style="fill:url(#SVGID_00000143578777667192837350000016099264028119243396_);" d="M76.6,206.7c-1.3-0.1-4.1-0.5-6-2.7
			c-1.4-1.7-2.1-4.3-1.4-6.4c0.7-2.3,2.7-3.4,5.5-5c9.5-5.2,18.7-9,18.7-9l0,0c0,0,38.4,22.6,38.4,22.6l0,0
			C131.9,206.2,90,208.2,76.6,206.7z"/>
		
			<linearGradient id="SVGID_00000170996813888900014790000002329002337178870179_" gradientUnits="userSpaceOnUse" x1="93.0705" y1="157.9688" x2="214.5589" y2="157.9688">
			<stop  offset="0" style="stop-color:#C2D5EF"/>
			<stop  offset="5.980462e-02" style="stop-color:#C9DAF1"/>
			<stop  offset="0.2903" style="stop-color:#E1EAF8"/>
			<stop  offset="0.5235" style="stop-color:#F2F6FC"/>
			<stop  offset="0.7589" style="stop-color:#FCFDFE"/>
			<stop  offset="1" style="stop-color:#FFFFFF"/>
		</linearGradient>
		<path style="fill:url(#SVGID_00000170996813888900014790000002329002337178870179_);" d="M107.3,134.1c-1.1,0.7-4,2.4-6.8,5
			c-1.9,1.8-4.7,4.4-6.2,8c-4.3,10.3,4.6,22,5.4,23c1,1.3,1.9,2.1,3.6,3.9c5.5,5.4,11.4,9.9,17.8,13.9c15.2,9.6,29.3,14.5,31.4,15.2
			c13.4,4.6,29.1,6.6,29.1,6.6l0,0c0,0,9.7,1.4,20.4,1.7c3,0.1,5.2,0.1,7.6-1.2c0.8-0.4,4.3-2.3,4.9-5.6c0.9-5.3-5.8-10.1-7.2-11
			c-1.5-1.1-2.8-1.6-3.1-1.8c-2.9-1.3-63.4-34.6-67.5-36.8c-0.2-0.1-3.5-1.9-3.5-1.9c0,0-11.5,5.9-11.5,5.9c0,0,15.6,12.4,33.6,22.5
			c13.2,7.4,28.4,13.9,28.4,13.9c6.2,0.7-12.4-1-18.5-2.1c-11-1.9-18.7-5.7-25.9-9.1c-3.1-1.5-27.3-13.2-29.6-24.2
			c-0.2-0.9-0.7-3.3,0.4-5.9c1.4-3.3,4.7-4.6,6.4-5.6c13.3-7.9,31.9-14.6,35.9-16.1c0.6-0.2,1.9-0.7,3.4-1.7c0.6-0.4,2.8-2,4-4.1
			c2.4-4.3,0-9.7-0.5-10.9c-2.9-6.5-9.2-9-10.5-9.5c-10.3-4.1-23.9,0.4-28.3,8.4c-1.2,2.1-3,6.8-3,11c0,0.7,0,4.8,0,4.8
			C117.4,130.3,108.3,133.5,107.3,134.1z"/>
	</g>
</g>
</svg>
